# xmcd
#
# Track frame offsets:
# 150
# 13195
# 25870
# 38165
# 51659
# 64934
# 82974
# 98379
# 113112
# 124427
# 142400
# 153431
# 170860
# 189965
# 206716
# 224702
# 239333
# 257453
#
# Disc length: 3637 seconds
#
#
# Revision: 0
# Processed by: cddbd v1.5.1PL2 Copyright (c) Steve Scherf et al.
# Submitted via: FreeRIP 2.944 
#
DISCID=0e0e3312
DTITLE=SOUL ALIVE - 044 - Soul alive
DYEAR=1900
DGENRE=Soul
TTITLE0=Intro and Soul sister, Brown sugar
TTITLE1=Stagger Lee
TTITLE2=Clean up woman
TTITLE3=Chain of fools
TTITLE4=when a man loves a woman
TTITLE5=I've seen what loneliness can do
TTITLE6=Baby I love you
TTITLE7=Sittin'on the dock of the bay
TTITLE8=Funky street
TTITLE9=sex machine
TTITLE10=Think
TTITLE11=You've got a friend
TTITLE12=Do right woman
TTITLE13=Sweet inspiration
TTITLE14=In the midnight hour
TTITLE15=Sweet soul music
TTITLE16=Dreans
TTITLE17=Respect
EXTD=
EXTT0=
EXTT1=
EXTT2=
EXTT3=
EXTT4=
EXTT5=
EXTT6=
EXTT7=
EXTT8=
EXTT9=
EXTT10=
EXTT11=
EXTT12=
EXTT13=
EXTT14=
EXTT15=
EXTT16=
EXTT17=
PLAYORDER=
